<?xml version="1.0" encoding="UTF-8" standalone="no"?>
<!-- Created with Inkscape (http://www.inkscape.org/) -->

<svg
   xmlns:dc="http://purl.org/dc/elements/1.1/"
   xmlns:cc="http://creativecommons.org/ns#"
   xmlns:rdf="http://www.w3.org/1999/02/22-rdf-syntax-ns#"
   xmlns:svg="http://www.w3.org/2000/svg"
   xmlns="http://www.w3.org/2000/svg"
   xmlns:sodipodi="http://sodipodi.sourceforge.net/DTD/sodipodi-0.dtd"
   xmlns:inkscape="http://www.inkscape.org/namespaces/inkscape"
   width="128"
   height="256"
   viewBox="0 0 33.866666 67.733335"
   version="1.1"
   id="svg8"
   inkscape:version="0.92.3 (2405546, 2018-03-11)"
   sodipodi:docname="top-bg-rotated.svg">
  <defs
     id="defs2" />
  <sodipodi:namedview
     id="base"
     pagecolor="#ffffff"
     bordercolor="#666666"
     borderopacity="1.0"
     inkscape:pageopacity="0.0"
     inkscape:pageshadow="2"
     inkscape:zoom="4"
     inkscape:cx="118.62305"
     inkscape:cy="123.27623"
     inkscape:document-units="mm"
     inkscape:current-layer="layer1"
     showgrid="true"
     units="px"
     inkscape:window-width="1918"
     inkscape:window-height="1538"
     inkscape:window-x="1913"
     inkscape:window-y="0"
     inkscape:window-maximized="0">
    <inkscape:grid
       type="xygrid"
       id="grid815" />
  </sodipodi:namedview>
  <metadata
     id="metadata5">
    <rdf:RDF>
      <cc:Work
         rdf:about="">
        <dc:format>image/svg+xml</dc:format>
        <dc:type
           rdf:resource="http://purl.org/dc/dcmitype/StillImage" />
        <dc:title></dc:title>
      </cc:Work>
    </rdf:RDF>
  </metadata>
  <g
     inkscape:label="Layer 1"
     inkscape:groupmode="layer"
     id="layer1"
     transform="translate(0,-229.26665)">
    <g
       id="g891"
       transform="rotate(-30,12.497462,294.99588)">
      <rect
         style="opacity:1;fill:none;fill-opacity:1;stroke:#000000;stroke-width:1.05833328;stroke-linecap:round;stroke-linejoin:bevel;stroke-miterlimit:4;stroke-dasharray:none;stroke-opacity:1"
         id="rect4524"
         width="25.400002"
         height="10.583332"
         x="40.21666"
         y="235.61665"
         rx="2.1166666"
         ry="2.1166666" />
      <g
         transform="matrix(2,0,0,2,12.700001,-247.25838)"
         id="g4539">
        <circle
           cx="4.2333331"
           cy="251.49167"
           id="circle2"
           style="fill:none;stroke:#000000;stroke-width:0.5291667;stroke-miterlimit:4;stroke-dasharray:none;stroke-opacity:1"
           r="2.6458333" />
        <line
           x1="4.2333331"
           y1="250.43335"
           x2="4.2333331"
           y2="251.49167"
           id="line4"
           style="fill:none;stroke:#000000;stroke-width:0.5291667;stroke-linecap:round;stroke-miterlimit:4;stroke-dasharray:none;stroke-opacity:1" />
        <line
           x1="4.2333331"
           y1="252.54999"
           x2="4.2333331"
           y2="252.54999"
           id="line6"
           style="fill:none;stroke:#000000;stroke-width:0.5291667;stroke-linecap:round;stroke-miterlimit:4;stroke-dasharray:none;stroke-opacity:1" />
      </g>
      <g
         id="g4547"
         transform="matrix(2,0,0,2,27.516665,-247.25838)">
        <g
           id="g4566">
          <circle
             cx="4.2333331"
             cy="251.49167"
             id="circle4541"
             style="fill:none;stroke:#000000;stroke-width:0.5291667;stroke-miterlimit:4;stroke-dasharray:none;stroke-opacity:1"
             r="2.6458333" />
          <polyline
             transform="matrix(0.26457804,0,0,0.26457804,1.0583969,248.31678)"
             points="8 12 12 16 16 12"
             id="polyline4"
             style="fill:none;stroke:#000000;stroke-width:2;stroke-linecap:round;stroke-miterlimit:4;stroke-dasharray:none;stroke-opacity:1" />
          <line
             x1="4.2333326"
             y1="250.43344"
             x2="4.2333326"
             y2="252.55003"
             id="line6-7"
             style="fill:none;stroke:#000000;stroke-width:0.52915603;stroke-linecap:round;stroke-miterlimit:4;stroke-dasharray:none;stroke-opacity:1" />
        </g>
      </g>
      <path
         style="fill:none;stroke:#000000;stroke-width:1.05896544;stroke-linecap:round;stroke-miterlimit:4;stroke-dasharray:none;stroke-opacity:1"
         id="path2"
         d="m 53.974996,254.66666 h -0.667149 a 4.2358614,4.2358614 0 1 0 -4.098195,5.29482 h 4.765344 a 2.6474134,2.6474134 0 0 0 0,-5.29482 z"
         inkscape:connector-curvature="0" />
      <g
         transform="matrix(2.0000004,0,0,2.0000004,-11.641677,-270.01255)"
         id="g4588">
        <rect
           x="19.049999"
           y="269.48331"
           width="3.4395833"
           height="3.4395833"
           rx="0.52916664"
           ry="0.52916664"
           id="rect2"
           style="fill:none;stroke:#000000;stroke-width:0.5291667;stroke-linecap:round;stroke-miterlimit:4;stroke-dasharray:none;stroke-opacity:1" />
        <path
           inkscape:connector-curvature="0"
           d="m 17.991667,271.07081 h -0.264584 a 0.52916667,0.52916667 0 0 1 -0.529166,-0.52916 v -2.38125 a 0.52916667,0.52916667 0 0 1 0.529166,-0.52917 h 2.38125 a 0.52916667,0.52916667 0 0 1 0.529167,0.52917 v 0.26458"
           id="path4"
           style="fill:none;stroke:#000000;stroke-width:0.5291667;stroke-linecap:round;stroke-miterlimit:4;stroke-dasharray:none;stroke-opacity:1" />
      </g>
      <path
         inkscape:connector-curvature="0"
         id="path4592"
         d="m 4.762496,266.83749 h 12.7"
         style="fill:none;fill-rule:evenodd;stroke:#000000;stroke-width:0.97982627;stroke-linecap:round;stroke-linejoin:miter;stroke-miterlimit:4;stroke-dasharray:none;stroke-opacity:1" />
      <path
         style="fill:none;fill-rule:evenodd;stroke:#000000;stroke-width:0.97982627;stroke-linecap:round;stroke-linejoin:miter;stroke-miterlimit:4;stroke-dasharray:none;stroke-opacity:1"
         d="m 4.762496,270.54166 h 12.7"
         id="path4594"
         inkscape:connector-curvature="0" />
      <path
         inkscape:connector-curvature="0"
         id="path4596"
         d="m 4.762496,274.24584 h 12.7"
         style="fill:none;fill-rule:evenodd;stroke:#000000;stroke-width:0.97982627;stroke-linecap:round;stroke-linejoin:miter;stroke-miterlimit:4;stroke-dasharray:none;stroke-opacity:1" />
      <g
         transform="matrix(1.99999,0,0,1.99999,-46.037059,-267.36395)"
         id="g4614">
        <polyline
           transform="matrix(0.26458333,0,0,0.26458333,41.275,265.77915)"
           points="9 11 12 14 22 4"
           id="polyline2"
           style="fill:none;stroke:#000000;stroke-width:2;stroke-linecap:round;stroke-miterlimit:4;stroke-dasharray:none;stroke-opacity:1" />
        <path
           inkscape:connector-curvature="0"
           d="m 46.83125,268.95415 v 1.85208 a 0.52916667,0.52916667 0 0 1 -0.529167,0.52917 h -3.704167 a 0.52916667,0.52916667 0 0 1 -0.529166,-0.52917 v -3.70416 a 0.52916667,0.52916667 0 0 1 0.529166,-0.52917 h 2.910417"
           id="path4-0"
           style="fill:none;stroke:#000000;stroke-width:0.5291667;stroke-linecap:round;stroke-miterlimit:4;stroke-dasharray:none;stroke-opacity:1" />
      </g>
      <rect
         ry="2.1166666"
         rx="2.1166666"
         y="235.61665"
         x="10.054162"
         height="10.583332"
         width="25.400002"
         id="rect4616"
         style="opacity:1;fill:none;fill-opacity:1;stroke:#000000;stroke-width:1.05833328;stroke-linecap:round;stroke-linejoin:bevel;stroke-miterlimit:4;stroke-dasharray:none;stroke-opacity:1" />
      <path
         style="fill:none;stroke:#000000;stroke-width:1.05853677;stroke-linecap:round;stroke-miterlimit:4;stroke-dasharray:none;stroke-opacity:1"
         id="path2-3"
         d="m 24.870833,281.12499 a 2.910976,2.910976 0 0 0 -4.117706,0 l -0.561024,0.56102 -0.561026,-0.56102 a 2.9116635,2.9116635 0 0 0 -4.117708,4.11772 l 0.561024,0.56102 4.11771,4.11772 4.117706,-4.11772 0.561024,-0.56102 a 2.910976,2.910976 0 0 0 0,-4.11772 z"
         inkscape:connector-curvature="0" />
      <g
         transform="matrix(2.0014972,0,0,2.0014972,-76.93645,-166.57724)"
         id="g4634">
        <path
           inkscape:connector-curvature="0"
           d="m 58.268355,226.85629 a 2.6458333,2.6458333 0 1 1 -3.495146,-3.45546"
           id="path2-4"
           style="fill:none;stroke:#000000;stroke-width:0.5291667;stroke-linecap:round;stroke-miterlimit:4;stroke-dasharray:none;stroke-opacity:1" />
        <path
           inkscape:connector-curvature="0"
           d="m 58.477376,225.82706 a 2.6458333,2.6458333 0 0 0 -2.645833,-2.64583 v 2.64583 z"
           id="path4-2"
           style="fill:none;stroke:#000000;stroke-width:0.5291667;stroke-linecap:round;stroke-miterlimit:4;stroke-dasharray:none;stroke-opacity:1" />
      </g>
      <g
         transform="matrix(2.0000004,0,0,2.0000004,-122.76668,-238.26262)"
         id="g4652">
        <rect
           x="61.912498"
           y="259.42914"
           width="1.8520833"
           height="1.8520833"
           id="rect2-1"
           style="fill:none;stroke:#000000;stroke-width:0.5291667;stroke-linecap:round;stroke-linejoin:miter;stroke-miterlimit:4;stroke-dasharray:none;stroke-opacity:1" />
        <rect
           x="64.822914"
           y="259.42914"
           width="1.8520833"
           height="1.8520833"
           id="rect4"
           style="fill:none;stroke:#000000;stroke-width:0.5291667;stroke-linecap:round;stroke-linejoin:miter;stroke-miterlimit:4;stroke-dasharray:none;stroke-opacity:1" />
        <rect
           x="64.822914"
           y="262.33957"
           width="1.8520833"
           height="1.8520833"
           id="rect6"
           style="fill:none;stroke:#000000;stroke-width:0.5291667;stroke-linecap:round;stroke-linejoin:miter;stroke-miterlimit:4;stroke-dasharray:none;stroke-opacity:1" />
        <rect
           x="61.912498"
           y="262.33957"
           width="1.8520833"
           height="1.8520833"
           id="rect8"
           style="fill:none;stroke:#000000;stroke-width:0.5291667;stroke-linecap:round;stroke-linejoin:miter;stroke-miterlimit:4;stroke-dasharray:none;stroke-opacity:1" />
      </g>
      <g
         transform="matrix(1.9987038,0,0,1.9987038,-28.53659,-291.85525)"
         id="g868">
        <path
           inkscape:connector-curvature="0"
           d="M 28.045834,293.29582 H 25.929167 A 0.52916667,0.52916667 0 0 0 25.4,293.82499 v 4.23333 a 0.52916667,0.52916667 0 0 0 0.529167,0.52917 h 3.175 a 0.52916667,0.52916667 0 0 0 0.529167,-0.52917 v -3.175 z"
           id="path2-0"
           style="fill:none;stroke:#000000;stroke-width:0.5291667;stroke-linecap:round;stroke-miterlimit:4;stroke-dasharray:none;stroke-opacity:1" />
        <polyline
           transform="matrix(0.26458333,0,0,0.26458333,24.341667,292.76665)"
           points="14 2 14 8 20 8"
           id="polyline4-1"
           style="fill:none;stroke:#000000;stroke-width:2;stroke-linecap:round;stroke-miterlimit:4;stroke-dasharray:none;stroke-opacity:1" />
        <line
           x1="28.574999"
           y1="296.20624"
           x2="26.458332"
           y2="296.20624"
           id="line6-4"
           style="fill:none;stroke:#000000;stroke-width:0.5291667;stroke-linecap:round;stroke-miterlimit:4;stroke-dasharray:none;stroke-opacity:1" />
        <line
           x1="28.574999"
           y1="297.26459"
           x2="26.458332"
           y2="297.26459"
           id="line8"
           style="fill:none;stroke:#000000;stroke-width:0.5291667;stroke-linecap:round;stroke-miterlimit:4;stroke-dasharray:none;stroke-opacity:1" />
        <polyline
           transform="matrix(0.26458333,0,0,0.26458333,24.341667,292.76665)"
           points="10 9 9 9 8 9"
           id="polyline10"
           style="fill:none;stroke:#000000;stroke-width:2;stroke-linecap:round;stroke-miterlimit:4;stroke-dasharray:none;stroke-opacity:1" />
      </g>
      <rect
         ry="2.1166666"
         rx="2.1166666"
         y="294.35416"
         x="-7.4083347"
         height="10.583332"
         width="25.400002"
         id="rect872"
         style="opacity:1;fill:none;fill-opacity:1;stroke:#000000;stroke-width:1.05833328;stroke-linecap:round;stroke-linejoin:bevel;stroke-miterlimit:4;stroke-dasharray:none;stroke-opacity:1" />
    </g>
  </g>
</svg>
